<svg xmlns="http://www.w3.org/2000/svg" xmlns:xlink="http://www.w3.org/1999/xlink" viewBox="0 0 174.87 47.06"><defs><style>.cls-1{fill:none;}.cls-2{clip-path:url(#clip-path);}.cls-3{fill:#ffe105;}.cls-4{fill:#1a1a1a;}.cls-5{fill:#e31313;}</style><clipPath id="clip-path" transform="translate(-14.21 -2.87)"><rect class="cls-1" width="205.9" height="68.71"/></clipPath></defs><g id="Camada_2" data-name="Camada 2"><g id="Camada_1-2" data-name="Camada 1"><g id="Camada_2-2" data-name="Camada 2"><g id="Camada_1-2-2" data-name="Camada 1-2"><g class="cls-2"><polygon class="cls-3" points="28.13 22.36 27.69 22.23 27.06 22.05 25.5 21.59 25.11 20.23 24.9 19.52 24.77 19.06 23.57 14.94 22.37 19.05 22.23 19.51 22.02 20.26 21.63 21.59 21.63 21.59 20.17 22.02 19.49 22.22 19.04 22.35 14.97 23.54 19.04 24.71 19.5 24.84 19.5 24.84 20.22 25.05 21.65 25.51 22.02 26.77 22.23 27.54 22.23 27.54 22.37 28.01 23.56 32.12 24.77 27.95 24.91 27.48 24.91 27.48 25.14 26.69 25.48 25.51 27.09 24.99 27.72 24.81 27.72 24.81 28.16 24.68 32.15 23.53 28.13 22.36"/><path class="cls-4" d="M50.39,29.55,61.31,26.4l-11-3.22a6.85,6.85,0,1,0-9.22-9L37.8,2.87,34.52,14.12a6.86,6.86,0,1,0-9.14,9L14.21,26.42l11.17,3.19a6.86,6.86,0,1,0,9.17,9l3.26,11.26,3.32-11.43a6.85,6.85,0,1,0,9.26-8.94M47.31,11.69a5.32,5.32,0,1,1,.06,10.63h-.06a5.31,5.31,0,0,1-5.32-5V17a5.32,5.32,0,0,1,5.31-5.33h0m-19,10.56a5.32,5.32,0,1,1,5.32-5.31,2.53,2.53,0,0,1,0,.47,5.3,5.3,0,0,1-5.05,4.82h-.23m0,18.9a5.32,5.32,0,0,1,0-10.63h.37a5.32,5.32,0,0,1,4.91,4.73,5.23,5.23,0,0,1,0,.56,5.31,5.31,0,0,1-5.31,5.31m12.2-12-2.67,9.22-2.66-9.21-9.2-2.65,9.2-2.7,2.66-9.18,2.66,9.18,9.18,2.68Zm6.91,12a5.32,5.32,0,0,1,0-10.63h.09A5.32,5.32,0,1,1,47.36,41" transform="translate(-14.21 -2.87)"/><polygon class="cls-4" points="56.03 27.03 56.03 12.43 50.87 12.43 50.87 30.98 61.79 30.98 61.79 27.03 56.03 27.03"/><path class="cls-4" d="M91.35,19.08V27a2.84,2.84,0,0,1-.66,2,2.54,2.54,0,0,1-3.56,0,2.73,2.73,0,0,1-.67-2V19.08H81.33v8.56a6.72,6.72,0,0,0,1.49,4.62A5.12,5.12,0,0,0,86.88,34a5.72,5.72,0,0,0,2.66-.62,4.92,4.92,0,0,0,1.82-1.6v2.1h5.18V19.08Z" transform="translate(-14.21 -2.87)"/><polygon class="cls-4" points="93.58 26.69 99.67 20.29 99.67 16.21 87.95 16.21 87.95 20.51 93.77 20.51 87.9 26.9 87.9 30.98 99.87 30.98 99.87 26.69 93.58 26.69"/><path class="cls-4" d="M119.67,33.84h5.15V19.08h-5.15Zm5.31-20v0h0a2.6,2.6,0,0,0-.53-.62,3,3,0,0,0-2.19-.79,3.05,3.05,0,0,0-2.2.77,2.39,2.39,0,0,0-.75,1.23,3.25,3.25,0,0,0-.08.69,2.46,2.46,0,0,0,.83,1.88,3.14,3.14,0,0,0,2.2.75,3,3,0,0,0,2.16-.75,2.37,2.37,0,0,0,.8-1.42h0a3.4,3.4,0,0,0,0-.45,2.54,2.54,0,0,0-.29-1.24" transform="translate(-14.21 -2.87)"/><path class="cls-4" d="M141,19.08v2.05a4.49,4.49,0,0,0-1.72-1.63,5.51,5.51,0,0,0-2.64-.61,5.74,5.74,0,0,0-3.19.93,6.21,6.21,0,0,0-2.26,2.63,9,9,0,0,0-.83,4,9.12,9.12,0,0,0,.83,4,6.34,6.34,0,0,0,2.26,2.66,5.72,5.72,0,0,0,3.19.91,5.51,5.51,0,0,0,2.64-.61A4.49,4.49,0,0,0,141,31.79v2.05h5.16V19.08Zm-.78,9.62a2.53,2.53,0,0,1-1.91.82,2.5,2.5,0,0,1-1.92-.82,3.19,3.19,0,0,1-.77-2.25,3.14,3.14,0,0,1,.77-2.25,2.52,2.52,0,0,1,1.92-.81,2.49,2.49,0,0,1,1.91.82,3.13,3.13,0,0,1,.78,2.23,3.12,3.12,0,0,1-.78,2.26" transform="translate(-14.21 -2.87)"/><path class="cls-4" d="M166.23,20.65a5.17,5.17,0,0,0-4.06-1.71,5.61,5.61,0,0,0-2.66.63,5.12,5.12,0,0,0-1.84,1.59V19h-5.16V33.84h5.16V25.92a2.85,2.85,0,0,1,.66-2,2.33,2.33,0,0,1,1.81-.72,2.28,2.28,0,0,1,1.77.72,2.88,2.88,0,0,1,.65,2v7.92h5.16v-8.6a6.7,6.7,0,0,0-1.49-4.58" transform="translate(-14.21 -2.87)"/><path class="cls-4" d="M183.78,19.08v2.05a4.39,4.39,0,0,0-1.71-1.63,5.51,5.51,0,0,0-2.64-.61,5.71,5.71,0,0,0-3.18.93A6.14,6.14,0,0,0,174,22.45a8.89,8.89,0,0,0-.83,4,9.12,9.12,0,0,0,.83,4,6.27,6.27,0,0,0,2.26,2.66,5.69,5.69,0,0,0,3.18.91,5.42,5.42,0,0,0,2.62-.6,4.38,4.38,0,0,0,1.73-1.63v2.05h5.16V19.08ZM183,28.7a2.65,2.65,0,0,1-3.83,0,3.18,3.18,0,0,1-.76-2.25,3.13,3.13,0,0,1,.76-2.25,2.56,2.56,0,0,1,1.92-.81,2.48,2.48,0,0,1,1.91.82,3.09,3.09,0,0,1,.78,2.23A3.12,3.12,0,0,1,183,28.7" transform="translate(-14.21 -2.87)"/><path class="cls-4" d="M137.25,40.4a3.71,3.71,0,0,0-.44-1.82,3,3,0,0,0-1.21-1.18,4,4,0,0,0-3.59,0,3.09,3.09,0,0,0-1.22,1.21,4.13,4.13,0,0,0,0,3.72A3.11,3.11,0,0,0,132,43.54a3.72,3.72,0,0,0,1.79.43,3.5,3.5,0,0,0,1.53-.32,3.08,3.08,0,0,0,1.15-.87,2.93,2.93,0,0,0,.61-1.25h-2.53a.88.88,0,0,1-.85.53,1,1,0,0,1-.7-.27,1.27,1.27,0,0,1-.31-.83h4.5a3.27,3.27,0,0,0,0-.54m-4.53-.59a1,1,0,0,1,1.08-.94,1.13,1.13,0,0,1,.73.25.83.83,0,0,1,.29.69Z" transform="translate(-14.21 -2.87)"/><polygon class="cls-4" points="130.1 37.68 132.42 34.21 129.81 34.21 128.83 35.92 127.6 34.21 124.93 34.21 127.3 37.48 125.03 41.02 127.64 41.02 128.61 39.31 129.84 41.02 132.5 41.02 130.1 37.68"/><path class="cls-4" d="M155.89,38.62a3,3,0,0,0-1.06-1.21,2.65,2.65,0,0,0-1.47-.42,2.39,2.39,0,0,0-1.2.28,2,2,0,0,0-.79.75v-1H149V47.14h2.38V42.93a2.06,2.06,0,0,0,.79.76,2.49,2.49,0,0,0,1.2.28,2.58,2.58,0,0,0,1.47-.43,2.85,2.85,0,0,0,1.06-1.22,4.63,4.63,0,0,0,0-3.72m-2.39,2.89a1.21,1.21,0,0,1-1.71,0s0,0,0,0a1.71,1.71,0,0,1,0-2.08,1.24,1.24,0,0,1,1.76,0,1.71,1.71,0,0,1,0,2.08" transform="translate(-14.21 -2.87)"/><path class="cls-4" d="M162.19,37.35a3,3,0,0,0-1,.92v-1.2h-2.38v6.81h2.38v-3a1.27,1.27,0,0,1,.37-1.06,1.82,1.82,0,0,1,1.15-.31h.67V37a2.39,2.39,0,0,0-1.22.34" transform="translate(-14.21 -2.87)"/><path class="cls-4" d="M172.35,40.4a3.71,3.71,0,0,0-.44-1.82,3,3,0,0,0-1.21-1.18,4,4,0,0,0-3.59,0,3.09,3.09,0,0,0-1.22,1.21,3.85,3.85,0,0,0-.44,1.85,3.76,3.76,0,0,0,.45,1.86,3.09,3.09,0,0,0,1.22,1.21,3.75,3.75,0,0,0,1.79.43,3.5,3.5,0,0,0,1.53-.32,3.08,3.08,0,0,0,1.15-.87,2.87,2.87,0,0,0,.63-1.24h-2.54a.86.86,0,0,1-.85.53,1,1,0,0,1-.7-.27,1.21,1.21,0,0,1-.3-.83h4.5a4.89,4.89,0,0,0,0-.54m-4.52-.59a1,1,0,0,1,1.08-.94,1.06,1.06,0,0,1,.72.25.87.87,0,0,1,.3.69Z" transform="translate(-14.21 -2.87)"/><path class="cls-4" d="M180.26,40.71a2.14,2.14,0,0,0-.86-.63,7.61,7.61,0,0,0-1.24-.35,5.65,5.65,0,0,1-.89-.26.41.41,0,0,1-.29-.37.38.38,0,0,1,.16-.31.75.75,0,0,1,.44-.1,1,1,0,0,1,.6.17.78.78,0,0,1,.29.53h2.15a2.55,2.55,0,0,0-.89-1.72,3.12,3.12,0,0,0-2.1-.66,3.82,3.82,0,0,0-1.53.29,2.27,2.27,0,0,0-1,.79,1.92,1.92,0,0,0-.33,1.1,1.65,1.65,0,0,0,.36,1.11,2.13,2.13,0,0,0,.85.6,8.32,8.32,0,0,0,1.21.33,6,6,0,0,1,.92.26.41.41,0,0,1,.28.38.36.36,0,0,1-.17.31.84.84,0,0,1-.46.13,1.13,1.13,0,0,1-.64-.18.76.76,0,0,1-.3-.54h-2.31a2.24,2.24,0,0,0,.47,1.22,2.81,2.81,0,0,0,1.14.85,4.07,4.07,0,0,0,1.65.31,3.69,3.69,0,0,0,1.5-.27,2.27,2.27,0,0,0,1-.75,1.91,1.91,0,0,0,0-2.23" transform="translate(-14.21 -2.87)"/><path class="cls-4" d="M188.73,40.71a2.14,2.14,0,0,0-.86-.63,7.5,7.5,0,0,0-1.23-.35,5.47,5.47,0,0,1-.9-.26.41.41,0,0,1-.28-.37.36.36,0,0,1,.16-.31.74.74,0,0,1,.44-.1,1,1,0,0,1,.6.17.88.88,0,0,1,.29.53h2.12a2.55,2.55,0,0,0-.89-1.72,3.11,3.11,0,0,0-2.1-.66,3.82,3.82,0,0,0-1.53.29,2.27,2.27,0,0,0-1,.79,1.94,1.94,0,0,0-.32,1.1,1.59,1.59,0,0,0,.35,1.11,2.13,2.13,0,0,0,.85.6,8.32,8.32,0,0,0,1.21.33,6,6,0,0,1,.92.26.42.42,0,0,1,.29.38.38.38,0,0,1-.17.31.85.85,0,0,1-.47.13,1.18,1.18,0,0,1-.63-.18.76.76,0,0,1-.3-.54H183a2.17,2.17,0,0,0,.47,1.22,2.74,2.74,0,0,0,1.14.85,4,4,0,0,0,1.64.31,3.8,3.8,0,0,0,1.5-.27,2.36,2.36,0,0,0,1-.75,1.81,1.81,0,0,0,.34-1.06,1.71,1.71,0,0,0-.37-1.17" transform="translate(-14.21 -2.87)"/><path class="cls-4" d="M125.26,15.12a3,3,0,1,1-3-3h0a3,3,0,0,1,3,3h0" transform="translate(-14.21 -2.87)"/><path class="cls-4" d="M39.83,26.4a2.06,2.06,0,1,1-4.12,0,2.07,2.07,0,0,1,2.06-2.07h0a2.06,2.06,0,0,1,2,2.06h0" transform="translate(-14.21 -2.87)"/><path class="cls-5" d="M37.78,29.15a2.75,2.75,0,1,1,2.74-2.75h0a2.75,2.75,0,0,1-2.74,2.75m0-4.12a1.37,1.37,0,1,0,1.36,1.38h0A1.38,1.38,0,0,0,37.78,25" transform="translate(-14.21 -2.87)"/></g></g></g></g></g></svg>